<?xml version="1.0" standalone="no"?>
<!DOCTYPE svg PUBLIC "-//W3C//DTD SVG 20010904//EN"
 "http://www.w3.org/TR/2001/REC-SVG-20010904/DTD/svg10.dtd">
<svg version="1.0" xmlns="http://www.w3.org/2000/svg"
 width="1200.000000pt" height="1222.000000pt" viewBox="0 0 1200.000000 1222.000000"
 preserveAspectRatio="xMidYMid meet">

<g transform="translate(0.000000,1222.000000) scale(0.100000,-0.100000)"
fill="#000000" stroke="none">
<path d="M5825 12209 c-310 -15 -627 -55 -943 -120 -1779 -367 -3306 -1512
-4160 -3120 l-62 -116 1013 -785 1012 -785 12 31 c6 17 31 81 54 141 254 666
741 1288 1334 1701 517 361 1088 573 1710 634 153 16 558 16 695 1 719 -79
1341 -347 1868 -805 l109 -94 869 870 869 869 -60 55 c-631 579 -1439 1036
-2269 1284 -658 196 -1326 274 -2051 239z"/>
<path d="M6130 6035 l0 -1175 1649 0 1648 0 -18 -92 c-83 -402 -280 -821 -549
-1167 -142 -183 -366 -398 -562 -539 -43 -30 -78 -58 -78 -62 0 -3 87 -73 193
-155 305 -237 917 -712 1349 -1047 218 -169 402 -308 408 -308 5 0 70 60 143
132 820 819 1359 1892 1571 3128 123 715 133 1520 30 2240 -14 96 -27 185 -31
198 l-5 22 -2874 0 -2874 0 0 -1175z"/>
</g>
</svg>
