<svg width="106" height="106" viewBox="0 0 106 106" fill="none" xmlns="http://www.w3.org/2000/svg">
<path d="M44.8 0.999998C24.4 4.6 8.69998 18.2 2.79998 37.5C1.19998 42.6 0.599976 47 0.599976 53.5C0.699976 68.2 4.89998 78.6 15.1 89.5C30.5 106 55.3 110.5 75.6 100.5C94.5 91.2 105.2 74.1 105.2 53C105.2 33.7 96.7 18.4 80.2 7.9C71.2 2.2 55.4 -0.900002 44.8 0.999998ZM61.5 21.5C82 26.7 88 28.8 88.9 31.4C91 37 90.8 70.5 88.7 72.6C88.2 73.1 81.5 72.2 72.9 70.4C70.3 69.8 70.3 69.8 69.7 77.8C69.4 82.3 68.9 86.4 68.5 87.1C67.1 89.2 48.5 85.5 25.3 78.4C18.1 76.3 16.9 75.6 16.3 73.2C15.3 69.6 15.3 38.3 16.3 34.7C17 32 17.2 31.9 21.6 32.6C24.1 32.9 28.3 33.8 30.8 34.4L35.5 35.6L36.2 46.9C36.6 54.4 37.3 58.7 38.2 59.5C40 61.3 65.6 69 69.6 69C70.4 69 69.4 49.1 68.4 46.7C67.9 45.2 57.9 41.4 48.5 39.1C46.3 38.6 42.6 37.6 40.3 37L36 35.9V29.6C36 26.1 36.3 21.8 36.6 20L37.3 16.8L42.4 17.4C45.2 17.7 53.8 19.6 61.5 21.5Z" fill="black"/>
</svg>
