<svg width="40" height="40" viewBox="0 0 40 40" fill="none" xmlns="http://www.w3.org/2000/svg">
<path d="M37.3674 0.118369C37.2776 0.159185 37.1306 0.273471 37.0408 0.37143C36.9225 0.497961 36.0122 2.16735 33.9918 5.95918C32.4082 8.93469 31.0612 11.4653 31 11.5878C30.8939 11.8 30.8939 11.8122 30.9674 11.8531C31.2163 12.0041 35.5714 13.9143 35.5959 13.8898C35.6163 13.8694 36.3959 11.7429 37.3306 9.16327C38.2612 6.57959 39.2408 3.88163 39.502 3.16327C39.9265 1.99592 39.9796 1.82857 39.9796 1.59184C39.9796 1.2449 39.8939 1.07347 39.5551 0.734695C39.249 0.428573 38.9306 0.244899 38.4898 0.126532C38.098 0.0163279 37.5959 0.0122463 37.3674 0.118369Z" fill="white"/>
<path d="M1.99592 6.12246C0.889796 6.25715 0.00408163 7.27348 0 8.41225C0 8.70204 0.130612 9.21225 0.273469 9.48163C0.428571 9.77551 0.942857 10.2776 1.24898 10.4408C2.30204 10.9918 3.58775 10.6408 4.24898 9.62041C4.56327 9.1347 4.68571 8.45715 4.5551 7.91021C4.27755 6.72654 3.20408 5.9796 1.99592 6.12246Z" fill="white"/>
<path d="M8.8857 7.67347C8.44488 7.78776 8.06529 8.10612 7.86121 8.53061C7.75101 8.76735 7.73468 8.83673 7.73468 9.16326C7.73468 9.48979 7.75101 9.55918 7.86529 9.80408C8.02448 10.1388 8.27346 10.3959 8.5959 10.5551C8.81223 10.6612 8.87754 10.6735 9.24488 10.6735C9.61223 10.6735 9.67754 10.6612 9.88978 10.5592C10.1918 10.4082 10.4898 10.1102 10.6408 9.80816C10.7428 9.59591 10.7551 9.53061 10.7551 9.16326C10.7551 8.8 10.7428 8.73061 10.6408 8.52245C10.3877 8.01225 9.89795 7.68163 9.33876 7.65306C9.1755 7.64082 8.97142 7.65306 8.8857 7.67347Z" fill="white"/>
<path d="M26.9061 13.1021C25.3224 13.3266 23.9102 14.3102 23.2286 15.6694C23.1551 15.8082 23.102 15.9347 23.1102 15.9388C23.1714 16.0041 37.7347 22.4449 37.7592 22.4204C37.7755 22.4041 37.8327 22.249 37.8898 22.0816C38.702 19.6857 37.6367 17.2245 35.3184 16.1184C34.8286 15.8857 32.9469 15.0368 32.102 14.6653C29.0735 13.3306 29.0122 13.3061 28.449 13.1796C28.0449 13.0898 27.2735 13.049 26.9061 13.1021Z" fill="white"/>
<path d="M7.75515 13.8571C6.96739 14.0245 6.298 14.3959 5.73065 14.9837C4.57147 16.1878 4.298 17.8612 5.02453 19.3225C5.61637 20.5143 6.76331 21.3143 8.10209 21.4694C8.55515 21.5225 8.8776 21.502 9.38372 21.3837C10.7429 21.0694 11.8735 19.9061 12.2327 18.4653C12.3348 18.0367 12.3266 17.1429 12.2082 16.7143C11.849 15.3755 10.8245 14.3347 9.48168 13.9347C9.03678 13.8 8.1878 13.7633 7.75515 13.8571Z" fill="white"/>
<path d="M21.7837 18.4C21.7062 18.5061 21.5674 18.7102 21.4694 18.8571C20.2205 20.7347 18.6858 22.0735 16.5103 23.1878C14.2123 24.3633 11.3674 25.2163 8.67353 25.5306C8.38373 25.5633 7.74699 25.6122 7.26536 25.6327C6.19189 25.6857 5.88985 25.7265 5.64087 25.8571C5.40006 25.9837 5.31434 26.0571 5.13067 26.298C4.77965 26.7551 4.73067 27.3592 4.99189 27.8898C5.36332 28.6367 7.64495 31.0041 9.3674 32.4327C13.7021 36.0245 19.5307 38.6245 25.5021 39.6327C26.5837 39.8163 27.4245 39.9184 28.045 39.9469C28.5388 39.9674 28.6327 39.9592 28.8817 39.8857C29.3511 39.7429 29.5633 39.5551 30.098 38.8245C31.947 36.2816 33.898 32.6367 35.4123 28.8939C35.947 27.5674 36.849 25.0816 36.8082 25.0408C36.8001 25.0327 36.1756 24.8122 35.4164 24.551C34.6572 24.2898 34.0123 24.0694 33.9837 24.0571C33.9307 24.0367 33.898 24.1143 33.1103 26.2653C31.7715 29.9061 29.9103 33.6449 28.1307 36.2694C27.7184 36.8776 27.8082 36.8571 26.445 36.6327C24.6409 36.3306 23.3184 36.0653 23.245 35.9918C23.2327 35.9796 23.4694 35.6041 23.7674 35.1592C24.6735 33.8122 25.3715 32.6816 25.8572 31.7796C26.098 31.3265 26.4613 30.4898 26.4286 30.4571C26.4164 30.4449 26.2572 30.5755 26.0735 30.7429C24.5878 32.0816 22.9592 33.2367 21.6531 33.8776C20.6164 34.3837 20.0817 34.5429 19.4082 34.5469C18.8164 34.5469 18.5307 34.4612 17.7143 34.0204C17.3674 33.8367 16.7143 33.5061 16.2694 33.2898C15.8205 33.0735 15.449 32.8898 15.4368 32.8816C15.4286 32.8694 15.6082 32.6449 15.8368 32.3796C16.3878 31.7469 16.8572 31.1429 17.2327 30.5918C17.5266 30.1674 17.8368 29.6041 17.8368 29.5102C17.8368 29.4857 17.7021 29.5755 17.5348 29.7102C16.6368 30.4449 15.5633 30.9837 14.2776 31.3469C13.6572 31.5225 13.4613 31.5429 13.249 31.4531C12.947 31.3265 10.9796 29.7878 10.1633 29.0408C9.73475 28.6449 9.64495 28.5469 9.7021 28.5225C9.74291 28.5061 10.0531 28.4449 10.3878 28.3878C14.9796 27.6082 19.0572 25.7796 21.7878 23.2735C22.2041 22.8898 22.8654 22.1674 23.2368 21.6816C23.5348 21.2939 24.5715 19.7755 24.5715 19.7265C24.5715 19.7102 24.2817 19.5347 23.9266 19.3388C23.5756 19.1429 22.9796 18.8082 22.6041 18.5959L21.9225 18.2122L21.7837 18.4Z" fill="white"/>
</svg>
