<?xml version="1.0" standalone="no"?>
<!DOCTYPE svg PUBLIC "-//W3C//DTD SVG 20010904//EN"
 "http://www.w3.org/TR/2001/REC-SVG-20010904/DTD/svg10.dtd">
<svg version="1.0" xmlns="http://www.w3.org/2000/svg"
 width="650.000000pt" height="106.000000pt" viewBox="0 0 650.000000 106.000000"
 preserveAspectRatio="xMidYMid meet">

<g transform="translate(0.000000,106.000000) scale(0.100000,-0.100000)"
fill="#000000" stroke="none">
<path d="M448 1050 c-204 -36 -361 -172 -420 -365 -16 -51 -22 -95 -22 -160 1
-147 43 -251 145 -360 154 -165 402 -210 605 -110 189 93 296 264 296 475 0
193 -85 346 -250 451 -90 57 -248 88 -354 69z m167 -205 c205 -52 265 -73 274
-99 21 -56 19 -391 -2 -412 -5 -5 -72 4 -158 22 -26 6 -26 6 -32 -74 -3 -45
-8 -86 -12 -93 -14 -21 -200 16 -432 87 -72 21 -84 28 -90 52 -10 36 -10 349
0 385 7 27 9 28 53 21 25 -3 67 -12 92 -18 l47 -12 7 -113 c4 -75 11 -118 20
-126 18 -18 274 -95 314 -95 8 0 -2 199 -12 223 -5 15 -105 53 -199 76 -22 5
-59 15 -82 21 l-43 11 0 63 c0 35 3 78 6 96 l7 32 51 -6 c28 -3 114 -22 191
-41z"/>
<path d="M4580 825 c0 -53 -1 -55 -21 -45 -16 9 -26 8 -45 -5 -30 -19 -44 -53
-44 -106 0 -89 54 -145 100 -104 19 17 20 17 20 1 0 -10 6 -16 13 -14 9 4 13
48 15 166 2 157 2 162 -18 162 -18 0 -20 -6 -20 -55z m-16 -81 c22 -22 22
-136 0 -155 -51 -42 -86 107 -37 156 18 19 18 18 37 -1z"/>
<path d="M4940 819 c0 -59 0 -60 -21 -45 -28 19 -63 4 -80 -35 -17 -41 -7
-143 16 -169 21 -24 48 -26 69 -5 19 19 26 19 26 -1 0 -9 5 -14 11 -12 6 2 10
7 10 11 -1 4 -1 77 -1 162 0 131 -2 155 -15 155 -12 0 -15 -13 -15 -61z m-18
-76 c22 -20 25 -119 4 -148 -17 -24 -43 -14 -57 22 -17 45 3 143 29 143 3 0
14 -7 24 -17z"/>
<path d="M3990 751 c0 -65 5 -132 11 -150 20 -56 79 -69 120 -25 23 24 24 34
27 160 3 130 3 134 -17 134 -20 0 -21 -5 -21 -133 0 -137 -5 -157 -42 -157
-30 0 -38 35 -38 164 0 119 -1 126 -20 126 -19 0 -20 -7 -20 -119z"/>
<path d="M4392 843 c5 -26 38 -29 38 -4 0 15 -6 21 -21 21 -14 0 -19 -5 -17
-17z"/>
<path d="M1895 821 c-123 -30 -173 -129 -162 -326 9 -180 76 -255 229 -255
120 1 190 48 217 145 17 61 14 254 -4 306 -38 106 -155 160 -280 130z m136
-137 c22 -23 24 -35 27 -133 3 -80 0 -117 -12 -144 -26 -63 -98 -76 -147 -28
-29 29 -29 31 -29 146 0 83 4 124 15 145 17 33 27 38 81 39 31 1 46 -5 65 -25z"/>
<path d="M3331 821 c-115 -30 -157 -162 -78 -247 18 -19 68 -56 111 -82 94
-56 111 -76 93 -112 -13 -24 -15 -25 -120 -23 l-108 1 3 -51 c4 -62 10 -65
144 -66 104 -1 144 11 189 59 25 27 30 40 33 99 4 67 3 70 -32 108 -19 22 -64
55 -98 73 -96 51 -118 68 -118 96 0 35 32 43 144 37 l96 -6 0 50 c0 44 -3 51
-22 57 -42 11 -202 15 -237 7z"/>
<path d="M1284 806 c-3 -8 -4 -31 -2 -52 l3 -39 73 -3 72 -3 0 -235 0 -235 63
3 62 3 3 232 2 232 68 3 67 3 3 53 3 52 -206 0 c-167 0 -207 -3 -211 -14z"/>
<path d="M2224 806 c-3 -8 -4 -31 -2 -52 l3 -39 73 -3 72 -3 0 -235 0 -235 63
3 62 3 3 232 2 232 68 3 67 3 3 53 3 52 -206 0 c-167 0 -207 -3 -211 -14z"/>
<path d="M2684 803 c3 -10 32 -130 65 -268 69 -292 71 -295 172 -295 75 0 114
19 128 62 12 39 121 495 121 509 0 5 -29 9 -65 9 -59 0 -65 -2 -70 -22 -3 -13
-26 -117 -50 -233 -25 -115 -49 -213 -54 -218 -11 -11 -10 -16 -67 251 l-48
222 -68 0 c-61 0 -69 -2 -64 -17z"/>
<path d="M4270 782 c-8 -3 -19 -10 -23 -16 -6 -8 -10 -7 -14 2 -2 6 -11 12
-19 12 -12 0 -14 -20 -12 -112 2 -93 6 -113 18 -113 12 0 16 19 20 93 5 88 13
111 42 112 18 0 28 -45 28 -124 0 -70 3 -86 15 -86 12 0 15 18 15 98 0 99 -7
123 -40 134 -8 3 -22 3 -30 0z"/>
<path d="M4693 780 c-32 -13 -29 -32 2 -24 29 7 55 -10 55 -36 0 -11 -15 -23
-40 -33 -44 -17 -64 -52 -54 -93 9 -34 48 -52 76 -35 17 11 22 10 29 0 6 -11
11 -11 20 -2 17 17 7 189 -12 207 -20 20 -51 26 -76 16z m57 -142 c0 -42 -12
-61 -36 -56 -12 2 -20 13 -22 31 -4 33 13 57 39 57 15 0 19 -7 19 -32z"/>
<path d="M5049 761 c-26 -27 -29 -36 -29 -96 0 -57 3 -69 25 -90 24 -25 43
-29 82 -19 32 9 18 31 -16 26 -32 -4 -61 26 -61 63 0 18 5 20 40 17 62 -6 69
0 60 49 -8 40 -38 79 -62 79 -5 0 -23 -13 -39 -29z m59 -13 c7 -7 12 -22 12
-35 0 -20 -5 -23 -35 -23 -37 0 -44 14 -25 51 12 22 30 25 48 7z"/>
<path d="M4392 668 c2 -93 6 -113 18 -113 12 0 16 20 18 113 3 107 2 112 -18
112 -20 0 -21 -5 -18 -112z"/>
<path d="M4008 514 c-16 -5 -18 -21 -18 -160 0 -147 1 -154 20 -154 18 0 20 7
20 70 0 52 3 70 13 70 21 0 44 -31 52 -70 11 -60 16 -70 31 -70 17 0 17 5 3
70 -6 28 -18 57 -27 66 -14 15 -14 17 0 25 40 22 43 106 5 137 -17 15 -73 23
-99 16z m76 -40 c33 -32 14 -95 -31 -109 -22 -6 -23 -4 -23 59 0 59 2 66 19
66 11 0 27 -7 35 -16z"/>
<path d="M4591 507 c-57 -29 -86 -114 -70 -205 12 -65 53 -102 114 -102 l45 0
0 80 0 80 -35 0 c-24 0 -35 -5 -35 -15 0 -8 9 -15 20 -15 17 0 20 -7 20 -50 0
-46 -2 -50 -25 -50 -13 0 -33 10 -44 21 -39 42 -39 166 0 208 21 22 62 37 77
27 6 -3 12 0 15 8 10 26 -41 34 -82 13z"/>
<path d="M5310 463 c0 -44 -3 -54 -12 -45 -20 20 -55 13 -77 -14 -16 -20 -21
-41 -21 -86 0 -76 21 -118 58 -118 16 0 33 5 40 12 9 9 12 9 12 0 0 -7 7 -12
15 -12 13 0 15 24 15 160 0 136 -2 160 -15 160 -12 0 -15 -13 -15 -57z m-10
-82 c17 -34 12 -116 -9 -142 -18 -22 -21 -23 -36 -8 -23 22 -31 101 -15 139
14 35 44 40 60 11z"/>
<path d="M5740 463 c0 -44 -3 -54 -12 -45 -18 18 -53 14 -74 -9 -26 -29 -32
-135 -10 -177 13 -25 23 -32 46 -32 16 0 32 5 35 10 3 5 11 10 16 10 6 0 7 -5
4 -10 -3 -6 1 -10 9 -10 14 0 16 22 16 160 0 136 -2 160 -15 160 -12 0 -15
-13 -15 -57z m-10 -82 c17 -34 12 -116 -9 -142 -18 -23 -21 -23 -37 -7 -25 24
-31 111 -10 143 20 30 41 32 56 6z"/>
<path d="M6115 508 c-62 -34 -61 -82 5 -152 72 -76 65 -133 -15 -124 -28 3
-35 1 -33 -11 2 -11 17 -17 42 -19 43 -4 80 22 90 64 8 31 -18 88 -50 109 -13
8 -31 26 -40 40 -15 23 -15 27 1 51 14 21 22 25 45 20 19 -3 30 -1 33 9 10 24
-42 33 -78 13z"/>
<path d="M6438 360 c3 -151 4 -160 22 -160 19 0 20 8 20 160 0 159 0 160 -22
160 l-23 0 3 -160z"/>
<path d="M4183 494 c-8 -21 13 -42 28 -27 13 13 5 43 -11 43 -6 0 -13 -7 -17
-16z"/>
<path d="M4190 428 c-1 -2 -2 -54 -3 -116 -2 -101 0 -112 16 -112 15 0 17 12
17 115 0 96 -3 115 -15 115 -8 0 -15 -1 -15 -2z"/>
<path d="M4289 404 c-20 -21 -24 -36 -24 -88 0 -81 21 -116 70 -116 40 0 62
26 72 83 18 112 -55 188 -118 121z m69 -16 c25 -25 10 -168 -18 -168 -25 0
-40 34 -40 94 0 59 11 86 35 86 6 0 16 -5 23 -12z"/>
<path d="M4730 315 c0 -103 2 -115 18 -115 15 0 17 11 17 81 0 76 2 82 28 103
28 22 36 46 15 46 -6 0 -20 -7 -30 -17 -17 -15 -18 -15 -18 0 0 10 -7 17 -15
17 -12 0 -15 -19 -15 -115z"/>
<path d="M4863 423 c-27 -10 -13 -30 18 -25 53 8 71 -51 19 -61 -40 -8 -70
-41 -70 -75 0 -49 57 -81 88 -50 9 9 12 9 12 0 0 -7 8 -12 18 -12 15 0 17 10
14 97 -3 72 -8 103 -19 116 -15 16 -53 21 -80 10z m67 -134 c0 -60 -37 -91
-60 -50 -19 36 5 73 53 80 4 0 7 -13 7 -30z"/>
<path d="M5019 423 c0 -5 -1 -56 -2 -115 -2 -97 0 -108 16 -108 15 0 17 11 17
89 0 69 4 92 16 102 11 9 20 10 32 2 14 -8 18 -29 20 -102 2 -72 6 -91 17 -91
22 0 22 192 -1 214 -20 21 -53 20 -76 -1 -17 -15 -18 -15 -18 0 0 16 -19 25
-21 10z"/>
<path d="M5416 411 c-42 -46 -44 -145 -3 -188 25 -28 97 -33 97 -8 0 11 -7 14
-24 9 -30 -7 -66 25 -66 61 0 23 3 25 51 25 l52 0 -6 47 c-7 69 -62 98 -101
54z m62 -23 c7 -7 12 -22 12 -35 0 -20 -5 -23 -35 -23 -30 0 -35 3 -35 23 0
24 17 47 35 47 6 0 16 -5 23 -12z"/>
<path d="M5842 405 c-41 -51 -36 -172 8 -195 30 -16 65 -12 86 11 15 17 19 36
19 96 0 67 -3 77 -24 94 -32 26 -66 24 -89 -6z m78 -41 c15 -44 7 -111 -15
-133 -15 -15 -18 -14 -36 8 -21 26 -26 108 -9 142 18 32 47 24 60 -17z"/>
<path d="M6250 334 c0 -52 5 -104 10 -115 11 -20 64 -27 75 -9 3 6 11 10 16
10 6 0 7 -4 4 -10 -3 -5 2 -10 12 -10 16 0 18 10 15 115 -3 92 -6 115 -18 115
-11 0 -14 -18 -14 -89 0 -68 -4 -93 -16 -105 -19 -20 -19 -20 -38 0 -12 12
-16 37 -16 105 0 72 -3 89 -15 89 -12 0 -15 -17 -15 -96z"/>
</g>
</svg>
